<?xml version="1.0" encoding="utf-8"?>
<!-- Generator: Adobe Illustrator 24.2.0, SVG Export Plug-In . SVG Version: 6.00 Build 0)  -->
<svg version="1.1" id="Calque_1" xmlns="http://www.w3.org/2000/svg" xmlns:xlink="http://www.w3.org/1999/xlink" x="0px" y="0px"
	 viewBox="0 0 425.2 311.81" style="enable-background:new 0 0 425.2 311.81;" xml:space="preserve">
<style type="text/css">
	.st0{fill:none;stroke:#6EFF6A;stroke-width:2;stroke-miterlimit:10;}
	.st1{fill:#444444;}
</style>
<g>
	<path class="st0" d="M340.83,37.19"/>
	<path class="st1" d="M339.66,39.75l-72.23,158.77c-5.4,11.86-17.2,19.51-30.23,19.58l-129.8,0.77
		c-15.39,0.09-29.37-8.98-35.54-23.09L21.46,80.67c-6.29-14.64,4.45-30.94,20.38-30.94h8.12h175.61c4.84,0,8.77,3.93,8.77,8.77v1.96
		c0,4.84-3.93,8.77-8.77,8.77H49.96H42c-1.08,0-1.8,1.09-1.39,2.09l47.22,112.56c3.69,8.8,12.3,14.52,21.84,14.52h128.58
		c3.93,0,7.5-2.29,9.13-5.87l78.51-172.21c0.71-1.56,2.26-2.56,3.97-2.56h65.79c5.03,0,9.1,4.07,9.1,9.1v0
		c0,5.7-4.62,10.32-10.32,10.32h-50.79C341.93,37.19,340.37,38.19,339.66,39.75z"/>
	<path class="st1" d="M105.94,232.27c-18.09,0-32.75,14.66-32.75,32.75c0,18.09,14.66,32.75,32.75,32.75
		c18.09,0,32.75-14.66,32.75-32.75C138.68,246.93,124.02,232.27,105.94,232.27z M105.91,277.32c-6.91,0-12.51-5.6-12.51-12.51
		c0-6.91,5.6-12.51,12.51-12.51c6.91,0,12.51,5.6,12.51,12.51C118.42,271.72,112.82,277.32,105.91,277.32z"/>
	<path class="st1" d="M237.24,232.07c-18.09,0-32.75,14.66-32.75,32.75c0,18.09,14.66,32.75,32.75,32.75
		c18.09,0,32.75-14.66,32.75-32.75C269.99,246.73,255.33,232.07,237.24,232.07z M237.22,277.12c-6.91,0-12.51-5.6-12.51-12.51
		c0-6.91,5.6-12.51,12.51-12.51c6.91,0,12.51,5.6,12.51,12.51C249.73,271.52,244.13,277.12,237.22,277.12z"/>
</g>
</svg>
